<svg xmlns="http://www.w3.org/2000/svg" viewBox="0 0 640 640"><!--!Font Awesome Free 7.0.1 by @fontawesome - https://fontawesome.com License - https://fontawesome.com/license/free Copyright 2025 Fonticons, Inc.--><path d="M576 112C576 103.7 571.7 96 564.7 91.6C557.7 87.2 548.8 86.8 541.4 90.5L416.5 152.1L244 93.4C230.3 88.7 215.3 89.6 202.1 95.7L77.8 154.3C69.4 158.2 64 166.7 64 176L64 528C64 536.2 68.2 543.9 75.1 548.3C82 552.7 90.7 553.2 98.2 549.7L225.5 489.8L392.8 545.6C390.9 542.6 389 539.6 387.2 536.5C377.8 520.9 368.4 503.2 360.9 484.4L256 449.4L256 148.3L384 191.8L384 298.5C397.4 282.9 413.7 269.9 432 260.1L432 198.1L528 150.7L528 240.8C544.8 242.4 560.9 246.4 576 252.5L576 112zM208 146.1L208 445.1L112 490.3L112 191.3L208 146.1zM512 288C445.7 288 392 340.8 392 405.9C392 474.8 456.1 556.3 490.6 595.2C502.2 608.2 521.9 608.2 533.5 595.2C568 556.3 632.1 474.8 632.1 405.9C632.1 340.8 578.4 288 512.1 288zM472 408C472 385.9 489.9 368 512 368C534.1 368 552 385.9 552 408C552 430.1 534.1 448 512 448C489.9 448 472 430.1 472 408z"/></svg>