<svg xmlns="http://www.w3.org/2000/svg" viewBox="0 0 640 640"><!--!Font Awesome Free 7.0.1 by @fontawesome - https://fontawesome.com License - https://fontawesome.com/license/free Copyright 2025 Fonticons, Inc.--><path d="M496 160C496 133.5 474.5 112 448 112C421.5 112 400 133.5 400 160C400 186.5 421.5 208 448 208C474.5 208 496 186.5 496 160zM544 160C544 213 501 256 448 256C420.6 256 395.9 244.5 378.4 226.1L252.9 295.8C254.9 303.5 256 311.6 256 320C256 328.4 254.9 336.5 252.9 344.2L378.4 413.9C395.9 395.5 420.6 384 448 384C501 384 544 427 544 480C544 533 501 576 448 576C395 576 352 533 352 480C352 471.7 353.1 463.5 355.1 455.8L229.6 386.1C212.1 404.5 187.4 416 160 416C107 416 64 373 64 320C64 267 107 224 160 224C187.4 224 212.1 235.5 229.6 253.9L355.1 184.2C353.1 176.5 352 168.4 352 160C352 107 395 64 448 64C501 64 544 107 544 160zM208 320C208 293.5 186.5 272 160 272C133.5 272 112 293.5 112 320C112 346.5 133.5 368 160 368C186.5 368 208 346.5 208 320zM448 528C474.5 528 496 506.5 496 480C496 453.5 474.5 432 448 432C421.5 432 400 453.5 400 480C400 506.5 421.5 528 448 528z"/></svg>