<svg xmlns="http://www.w3.org/2000/svg" viewBox="0 0 640 640"><!--!Font Awesome Free 7.0.1 by @fontawesome - https://fontawesome.com License - https://fontawesome.com/license/free Copyright 2025 Fonticons, Inc.--><path d="M128.1 152C128.1 138.7 138.8 128 152.1 128L308.2 128C314.6 128 320.7 130.5 325.2 135L533.2 343C542.6 352.4 542.6 367.6 533.2 376.9L377.1 533.1C367.7 542.5 352.5 542.5 343.2 533.1L135.2 325.1C130.7 320.6 128.2 314.5 128.2 308.1L128.1 152zM152.1 80C112.3 80 80.1 112.2 80.1 152L80.1 308.1C80.1 327.2 87.7 345.5 101.2 359L309.2 567C337.3 595.1 382.9 595.1 411 567L567.1 410.9C595.2 382.8 595.2 337.2 567.1 309.1L359.1 101.1C345.6 87.6 327.3 80 308.2 80L152.1 80zM208.1 240C225.8 240 240.1 225.7 240.1 208C240.1 190.3 225.8 176 208.1 176C190.4 176 176.1 190.3 176.1 208C176.1 225.7 190.4 240 208.1 240z"/></svg>